{"title":"Pee-wees.Big.Adventure.1985.720p.BluRay.H264.AAC-RARBG","uid":11978453,"size":1207943406,"categoryP":"video","categoryS":"hd___movies","magnet":"?xt=urn:btih:ddfc237b9aa0f4eb499896ddcb6123a949b68555&amp;dn=Pee-wees.Big.Adventure.1985.720p.BluRay.H264.AAC-RARBG&amp;tr=udp%3A%2F%2Ftracker.openbittorrent.com%3A80&amp;tr=udp%3A%2F%2Fopen.demonii.com%3A1337&amp;tr=udp%3A%2F%2Ftracker.coppersurfer.tk%3A6969&amp;tr=udp%3A%2F%2Fexodus.desync.com%3A6969","seeders":0,"leechers":1,"uploader":"vickey1992","files":7,"time":1433109257,"description":"Video\nID                                       : 1\nFormat                                   : AVC\nFormat/Info                              : Advanced Video Codec\nFormat profile                           : &lt;a class=&quot;__cf_email__&quot; href=&quot;/cdn-cgi/l/email-protection&quot; data-cfemail=&quot;9ad2f3fdf2dad6aeb4ab&quot;&gt;[email&amp;#160;protected]&lt;/a&gt;&lt;script data-cfhash='f9e31' type=&quot;text/javascript&quot;&gt;\n/* &lt;![CDATA[ */!function(){try{var t=&quot;currentScript&quot;in document?document.currentScript:function(){for(var t=document.getElementsByTagName(&quot;script&quot;),e=t.length;e--;)if(t[e].getAttribute(&quot;data-cfhash&quot;))return t[e]}();if(t&amp;&amp;t.previousSibling){var e,r,n,i,c=t.previousSibling,a=c.getAttribute(&quot;data-cfemail&quot;);if(a){for(e=&quot;&quot;,r=parseInt(a.substr(0,2),16),n=2;a.length-n;n+=2)i=parseInt(a.substr(n,2),16)^r,e+=String.fromCharCode(i);e=document.createTextNode(e),c.parentNode.replaceChild(e,c)}t.parentNode.removeChild(t);}}catch(u){}}()/* ]]&gt; */&lt;/script&gt;\nFormat settings, CABAC                   : Yes\nFormat settings, ReFrames                : 4 frames\nCodec ID                                 : avc1\nCodec ID/Info                            : Advanced Video Coding\nDuration                                 : 1h 31mn\nBit rate                                 : 1 500 Kbps\nWidth                                    : 1 280 pixels\nHeight                                   : 720 pixels\nDisplay aspect ratio                     : 16:9\nFrame rate mode                          : Constant\nFrame rate                               : 23.976 fps\nColor space                              : YUV\nChroma subsampling                       : 4:2:0\nBit depth                                : 8 bits\nScan type                                : Progressive\nBits/(Pixel*Frame)                       : 0.068\nStream size                              : 981 MiB (87%)\nWriting library                          : x264 core 144 r2525M 40bb568\nEncoding settings                        : cabac=1 / ref=4 / deblock=1:-1:-1 / analyse=0x3:0x113 / me=umh / subme=9 / psy=1 / psy_rd=1.00:0.15 / mixed_ref=1 / me_range=24 / chroma_me=1 / trellis=2 / 8x8dct=1 / cqm=0 / deadzone=21,11 / fast_pskip=1 / chroma_qp_offset=-3 / threads=32 / lookahead_threads=4 / sliced_threads=0 / nr=0 / decimate=1 / interlaced=0 / bluray_compat=0 / constrained_intra=0 / bframes=3 / b_pyramid=2 / b_adapt=1 / b_bias=0 / direct=1 / weightb=1 / open_gop=0 / weightp=2 / keyint=250 / keyint_min=25 / scenecut=40 / intra_refresh=0 / rc_lookahead=50 / rc=2pass / mbtree=1 / bitrate=1500 / ratetol=1.0 / qcomp=0.60 / qpmin=0 / qpmax=69 / qpstep=4 / cplxblur=20.0 / qblur=0.5 / vbv_maxrate=31250 / vbv_bufsize=31250 / nal_hrd=none / filler=0 / ip_ratio=1.40 / aq=3:1.00\nEncoded date                             : UTC 1904-01-01 00:00:00\nTagged date                              : UTC 1904-01-01 00:00:00\n\nAudio\nID                                       : 2\nFormat                                   : AAC\nFormat/Info                              : Advanced Audio Codec\nFormat profile                           : LC\nCodec ID                                 : 40\nDuration                                 : 1h 31mn\nBit rate mode                            : Constant\nBit rate                                 : 224 Kbps\nChannel(s)                               : 2 channels\nChannel(s)_Original                      : 6 channels\nChannel positions                        : Front: L C R, Side: L R, LFE\nSampling rate                            : 48.0 KHz\nCompression mode                         : Lossy\nStream size                              : 147 MiB (13%)\nLanguage                                 : English\nEncoded date                             : UTC 1904-01-01 00:00:00\nTagged date                              : UTC 1904-01-01 00:00:00\n\nMenu #1\nID                                       : 3\nCodec ID                                 : text\nDuration                                 : 1h 31mn\nLanguage                                 : English\nEncoded date                             : UTC 1904-01-01 00:00:00\nTagged date                              : UTC 1904-01-01 00:00:00\nBit rate mode                            : CBR\n00:00:00.000                             : 00:00:00.000\n00:01:06.109                             : 00:01:06.066\n00:02:48.128                             : 00:02:48.085\n00:08:21.836                             : 00:08:21.793\n00:13:18.883                             : 00:13:18.840\n00:16:18.479                             : 00:16:18.436\n00:18:38.744                             : 00:18:38.701\n00:21:15.150                             : 00:21:15.107\n00:25:43.960                             : 00:25:43.917\n00:30:12.062                             : 00:30:12.019\n00:33:01.606                             : 00:33:01.563\n00:37:49.101                             : 00:37:49.058\n00:40:10.451                             : 00:40:10.408\n00:46:25.659                             : 00:46:25.616\n00:49:06.987                             : 00:49:06.944\n00:50:00.832                             : 00:50:00.789\n00:51:21.038                             : 00:51:20.995\n00:52:24.851                             : 00:52:24.808\n00:55:00.549                             : 00:55:00.506\n00:59:07.921                             : 00:59:07.878\n01:01:36.736                             : 01:01:36.693\n01:06:31.989                             : 01:06:31.946\n01:09:00.888                             : 01:09:00.845\n01:12:14.123                             : 01:12:14.080\n01:15:59.389                             : 01:15:59.346\n01:17:30.147                             : 01:17:30.104\n01:20:56.186                             : 01:20:56.143\n01:28:06.824                             : 01:28:06.781\n\nMenu #2\n00:00:00.043                             : 00:00:00.000\n00:01:06.109                             : 00:01:06.066\n00:02:48.128                             : 00:02:48.085\n00:08:21.836                             : 00:08:21.793\n00:13:18.883                             : 00:13:18.840\n00:16:18.479                             : 00:16:18.436\n00:18:38.744                             : 00:18:38.701\n00:21:15.150                             : 00:21:15.107\n00:25:43.960                             : 00:25:43.917\n00:30:12.062                             : 00:30:12.019\n00:33:01.606                             : 00:33:01.563\n00:37:49.101                             : 00:37:49.058\n00:40:10.451                             : 00:40:10.408\n00:46:25.659                             : 00:46:25.616\n00:49:06.987                             : 00:49:06.944\n00:50:00.832                             : 00:50:00.789\n00:51:21.038                             : 00:51:20.995\n00:52:24.851                             : 00:52:24.808\n00:55:00.549                             : 00:55:00.506\n00:59:07.921                             : 00:59:07.878\n01:01:36.736                             : 01:01:36.693\n01:06:31.989                             : 01:06:31.946\n01:09:00.888                             : 01:09:00.845\n01:12:14.123                             : 01:12:14.080\n01:15:59.389                             : 01:15:59.346\n01:17:30.147                             : 01:17:30.104\n01:20:56.186                             : 01:20:56.143\n01:28:06.824                             : 01:28:06.781","torrent":{"xt":"urn:btih:ddfc237b9aa0f4eb499896ddcb6123a949b68555","amp;dn":"Pee-wees.Big.Adventure.1985.720p.BluRay.H264.AAC-RARBG","amp;tr":["udp%3A%2F%2Ftracker.openbittorrent.com%3A80","udp%3A%2F%2Fopen.demonii.com%3A1337","udp%3A%2F%2Ftracker.coppersurfer.tk%3A6969","udp%3A%2F%2Fexodus.desync.com%3A6969"],"infoHash":"ddfc237b9aa0f4eb499896ddcb6123a949b68555","infoHashBuffer":{"type":"Buffer","data":[221,252,35,123,154,160,244,235,73,152,150,221,203,97,35,169,73,182,133,85]},"announce":[],"urlList":[]}}